{
  "accessors": [
    {
      "bufferView": 2,
      "componentType": 5126,
      "count": 257,
      "max": [
        18.875720977783203,
        90.72001647949219,
        29.518468856811523
      ],
      "min": [
        -18.875720977783203,
        14.80752944946289,
        -75.49394226074219
      ],
      "type": "VEC3"
    },
    {
      "bufferView": 2,
      "byteOffset": 3084,
      "componentType": 5126,
      "count": 257,
      "max": [
        0.9893215298652649,
        0.9995024800300598,
        0.9990030527114868
      ],
      "min": [
        -0.9893215894699097,
        -0.9996166825294495,
        -0.9982355833053589
      ],
      "type": "VEC3"
    },
    {
      "bufferView": 1,
      "componentType": 5126,
      "count": 257,
      "max": [
        0.9834558963775635,
        0.942897617816925
      ],
      "min": [
        0.019617903977632523,
        0.04889225959777832
      ],
      "type": "VEC2"
    },
    {
      "bufferView": 1,
      "byteOffset": 2056,
      "componentType": 5126,
      "count": 257,
      "max": [
        0.9834558963775635,
        0.942897617816925
      ],
      "min": [
        0.019617903977632523,
        0.04889225959777832
      ],
      "type": "VEC2"
    },
    {
      "bufferView": 0,
      "componentType": 5125,
      "count": 1320,
      "type": "SCALAR"
    },
    {
      "bufferView": 2,
      "byteOffset": 6168,
      "componentType": 5126,
      "count": 144,
      "max": [
        36.889312744140625,
        34.53334045410156,
        17.280315399169922
      ],
      "min": [
        -36.889312744140625,
        17.434246063232422,
        3.2460696697235107
      ],
      "type": "VEC3"
    },
    {
      "bufferView": 2,
      "byteOffset": 7896,
      "componentType": 5126,
      "count": 144,
      "max": [
        0.7248861789703369,
        0.9930981397628784,
        0.997842013835907
      ],
      "min": [
        -0.7248863577842712,
        -0.9937388300895691,
        -0.9960372447967529
      ],
      "type": "VEC3"
    },
    {
      "bufferView": 1,
      "byteOffset": 4112,
      "componentType": 5126,
      "count": 144,
      "max": [
        0.2988767623901367,
        0.9847677946090698
      ],
      "min": [
        0.023562490940093994,
        0.7856842279434204
      ],
      "type": "VEC2"
    },
    {
      "bufferView": 1,
      "byteOffset": 5264,
      "componentType": 5126,
      "count": 144,
      "max": [
        0.2988767623901367,
        0.9847677946090698
      ],
      "min": [
        0.023562490940093994,
        0.7856842279434204
      ],
      "type": "VEC2"
    },
    {
      "bufferView": 0,
      "byteOffset": 5280,
      "componentType": 5125,
      "count": 672,
      "type": "SCALAR"
    },
    {
      "bufferView": 2,
      "byteOffset": 9624,
      "componentType": 5126,
      "count": 144,
      "max": [
        33.83004379272461,
        29.99995994567871,
        -5.382110595703125
      ],
      "min": [
        -33.83004379272461,
        14.862520217895508,
        -16.35615348815918
      ],
      "type": "VEC3"
    },
    {
      "bufferView": 2,
      "byteOffset": 11352,
      "componentType": 5126,
      "count": 144,
      "max": [
        0.7232863306999207,
        0.9909939765930176,
        0.993654191493988
      ],
      "min": [
        -0.7232863903045654,
        -0.9921271800994873,
        -0.9984174370765686
      ],
      "type": "VEC3"
    },
    {
      "bufferView": 1,
      "byteOffset": 6416,
      "componentType": 5126,
      "count": 144,
      "max": [
        0.5454639196395874,
        0.9593455195426941
      ],
      "min": [
        0.30864259600639343,
        0.7880968451499939
      ],
      "type": "VEC2"
    },
    {
      "bufferView": 1,
      "byteOffset": 7568,
      "componentType": 5126,
      "count": 144,
      "max": [
        0.5454639196395874,
        0.9593455195426941
      ],
      "min": [
        0.30864259600639343,
        0.7880968451499939
      ],
      "type": "VEC2"
    },
    {
      "bufferView": 0,
      "byteOffset": 7968,
      "componentType": 5125,
      "count": 672,
      "type": "SCALAR"
    },
    {
      "bufferView": 2,
      "byteOffset": 13080,
      "componentType": 5126,
      "count": 144,
      "max": [
        25.564470291137695,
        26.363447189331055,
        -29.67031478881836
      ],
      "min": [
        -25.564470291137695,
        13.631614685058594,
        -40.802101135253906
      ],
      "type": "VEC3"
    },
    {
      "bufferView": 2,
      "byteOffset": 14808,
      "componentType": 5126,
      "count": 144,
      "max": [
        0.8014060258865356,
        0.989567220211029,
        0.9509723782539368
      ],
      "min": [
        -0.8014058470726013,
        -0.991034746170044,
        -0.9788517951965332
      ],
      "type": "VEC3"
    },
    {
      "bufferView": 1,
      "byteOffset": 8720,
      "componentType": 5126,
      "count": 144,
      "max": [
        0.7397627830505371,
        0.8818404674530029
      ],
      "min": [
        0.5446281433105469,
        0.7407360076904297
      ],
      "type": "VEC2"
    },
    {
      "bufferView": 1,
      "byteOffset": 9872,
      "componentType": 5126,
      "count": 144,
      "max": [
        0.7397627830505371,
        0.8818404674530029
      ],
      "min": [
        0.5446281433105469,
        0.7407360076904297
      ],
      "type": "VEC2"
    },
    {
      "bufferView": 0,
      "byteOffset": 10656,
      "componentType": 5125,
      "count": 672,
      "type": "SCALAR"
    },
    {
      "bufferView": 2,
      "byteOffset": 16536,
      "componentType": 5126,
      "count": 548,
      "max": [
        42.889122009277344,
        26.776790618896484,
        19.113426208496094
      ],
      "min": [
        -42.889122009277344,
        0.49215495586395264,
        -41.90290451049805
      ],
      "type": "VEC3"
    },
    {
      "bufferView": 2,
      "byteOffset": 23112,
      "componentType": 5126,
      "count": 548,
      "max": [
        0.989528477191925,
        0.9698593616485596,
        0.9984665513038635
      ],
      "min": [
        -0.9895285367965698,
        -0.9949572086334229,
        -0.9997451901435852
      ],
      "type": "VEC3"
    },
    {
      "bufferView": 1,
      "byteOffset": 11024,
      "componentType": 5126,
      "count": 548,
      "max": [
        0.4979381561279297,
        0.4619114398956299
      ],
      "min": [
        0.011763244867324829,
        0.010789886116981506
      ],
      "type": "VEC2"
    },
    {
      "bufferView": 0,
      "byteOffset": 13344,
      "componentType": 5125,
      "count": 1872,
      "type": "SCALAR"
    },
    {
      "bufferView": 2,
      "byteOffset": 29688,
      "componentType": 5126,
      "count": 108,
      "max": [
        28.838817596435547,
        36.45041275024414,
        18.466442108154297
      ],
      "min": [
        -28.838817596435547,
        24.157936096191406,
        -17.527889251708984
      ],
      "type": "VEC3"
    },
    {
      "bufferView": 2,
      "byteOffset": 30984,
      "componentType": 5126,
      "count": 108,
      "max": [
        0.8660091161727905,
        0.9830418825149536,
        0.9581298232078552
      ],
      "min": [
        -0.8660089373588562,
        0.008911424316465855,
        -0.9813194870948792
      ],
      "type": "VEC3"
    },
    {
      "bufferView": 1,
      "byteOffset": 15408,
      "componentType": 5126,
      "count": 108,
      "max": [
        0.8689239621162415,
        0.9740458130836487
      ],
      "min": [
        0.21406784653663635,
        0.21574142575263977
      ],
      "type": "VEC2"
    },
    {
      "bufferView": 0,
      "byteOffset": 20832,
      "componentType": 5125,
      "count": 384,
      "type": "SCALAR"
    },
    {
      "bufferView": 2,
      "byteOffset": 32280,
      "componentType": 5126,
      "count": 393,
      "max": [
        28.342376708984375,
        61.23894119262695,
        33.90484619140625
      ],
      "min": [
        -28.342376708984375,
        13.277408599853516,
        -59.25102615356445
      ],
      "type": "VEC3"
    },
    {
      "bufferView": 2,
      "byteOffset": 36996,
      "componentType": 5126,
      "count": 393,
      "max": [
        0.9964713454246521,
        0.9995499849319458,
        0.997761070728302
      ],
      "min": [
        -0.9964712262153625,
        -0.9096921682357788,
        -0.8966147303581238
      ],
      "type": "VEC3"
    },
    {
      "bufferView": 1,
      "byteOffset": 16272,
      "componentType": 5126,
      "count": 393,
      "max": [
        0.9937316179275513,
        0.9557372331619263
      ],
      "min": [
        0.05696719512343407,
        0.1545989215373993
      ],
      "type": "VEC2"
    },
    {
      "bufferView": 0,
      "byteOffset": 22368,
      "componentType": 5125,
      "count": 1542,
      "type": "SCALAR"
    },
    {
      "bufferView": 2,
      "byteOffset": 41712,
      "componentType": 5126,
      "count": 406,
      "max": [
        -21.776134490966797,
        32.414737701416016,
        16.19076156616211
      ],
      "min": [
        -48.99634552001953,
        2.8165040016174316,
        -41.80232238769531
      ],
      "type": "VEC3"
    },
    {
      "bufferView": 2,
      "byteOffset": 46584,
      "componentType": 5126,
      "count": 406,
      "max": [
        0.9279800653457642,
        0.9945304989814758,
        0.9983243942260742
      ],
      "min": [
        -0.9944497346878052,
        -0.8281332850456238,
        -0.9995236396789551
      ],
      "type": "VEC3"
    },
    {
      "bufferView": 1,
      "byteOffset": 19416,
      "componentType": 5126,
      "count": 406,
      "max": [
        0.9120615720748901,
        0.09214794635772705
      ],
      "min": [
        0.7873381972312927,
        0.011705607175827026
      ],
      "type": "VEC2"
    },
    {
      "bufferView": 0,
      "byteOffset": 28536,
      "componentType": 5125,
      "count": 1764,
      "type": "SCALAR"
    },
    {
      "bufferView": 2,
      "byteOffset": 51456,
      "componentType": 5126,
      "count": 406,
      "max": [
        48.99634552001953,
        32.414737701416016,
        16.19076156616211
      ],
      "min": [
        21.776134490966797,
        2.8165040016174316,
        -41.80232238769531
      ],
      "type": "VEC3"
    },
    {
      "bufferView": 2,
      "byteOffset": 56328,
      "componentType": 5126,
      "count": 406,
      "max": [
        0.9944498538970947,
        0.9945303201675415,
        0.9983243942260742
      ],
      "min": [
        -0.9279801249504089,
        -0.8281332850456238,
        -0.9995236396789551
      ],
      "type": "VEC3"
    },
    {
      "bufferView": 1,
      "byteOffset": 22664,
      "componentType": 5126,
      "count": 406,
      "max": [
        0.9882630109786987,
        0.17449641227722168
      ],
      "min": [
        0.863539457321167,
        0.09405415505170822
      ],
      "type": "VEC2"
    },
    {
      "bufferView": 0,
      "byteOffset": 35592,
      "componentType": 5125,
      "count": 1764,
      "type": "SCALAR"
    },
    {
      "bufferView": 2,
      "byteOffset": 61200,
      "componentType": 5126,
      "count": 145,
      "max": [
        -0.4182361662387848,
        39.92090606689453,
        33.8526496887207
      ],
      "min": [
        -17.82706069946289,
        18.535764694213867,
        24.353424072265625
      ],
      "type": "VEC3"
    },
    {
      "bufferView": 2,
      "byteOffset": 62940,
      "componentType": 5126,
      "count": 145,
      "max": [
        0.987091600894928,
        0.967799961566925,
        0.9979738593101501
      ],
      "min": [
        -0.9997767806053162,
        -0.9135275483131409,
        -0.9156712293624878
      ],
      "type": "VEC3"
    },
    {
      "bufferView": 1,
      "byteOffset": 25912,
      "componentType": 5126,
      "count": 145,
      "max": [
        0.9120615720748901,
        0.09214794635772705
      ],
      "min": [
        0.7873381972312927,
        0.011705607175827026
      ],
      "type": "VEC2"
    },
    {
      "bufferView": 0,
      "byteOffset": 42648,
      "componentType": 5125,
      "count": 630,
      "type": "SCALAR"
    },
    {
      "bufferView": 2,
      "byteOffset": 64680,
      "componentType": 5126,
      "count": 145,
      "max": [
        17.82706069946289,
        39.92090606689453,
        33.8526496887207
      ],
      "min": [
        0.4182361662387848,
        18.535764694213867,
        24.353424072265625
      ],
      "type": "VEC3"
    },
    {
      "bufferView": 2,
      "byteOffset": 66420,
      "componentType": 5126,
      "count": 145,
      "max": [
        0.9997767806053162,
        0.967799723148346,
        0.9979738593101501
      ],
      "min": [
        -0.987091600894928,
        -0.9135274887084961,
        -0.9156711101531982
      ],
      "type": "VEC3"
    },
    {
      "bufferView": 1,
      "byteOffset": 27072,
      "componentType": 5126,
      "count": 145,
      "max": [
        0.9882630109786987,
        0.17449641227722168
      ],
      "min": [
        0.863539457321167,
        0.09405415505170822
      ],
      "type": "VEC2"
    },
    {
      "bufferView": 0,
      "byteOffset": 45168,
      "componentType": 5125,
      "count": 630,
      "type": "SCALAR"
    },
    {
      "bufferView": 2,
      "byteOffset": 68160,
      "componentType": 5126,
      "count": 29,
      "max": [
        3.4478328227996826,
        23.07468032836914,
        36.71864700317383
      ],
      "min": [
        -3.4478325843811035,
        18.1570987701416,
        26.1170711517334
      ],
      "type": "VEC3"
    },
    {
      "bufferView": 2,
      "byteOffset": 68508,
      "componentType": 5126,
      "count": 29,
      "max": [
        0.996137261390686,
        0.9124798774719238,
        0.9994155764579773
      ],
      "min": [
        -0.9960402250289917,
        -0.9221367239952087,
        -0.1351201981306076
      ],
      "type": "VEC3"
    },
    {
      "bufferView": 1,
      "byteOffset": 28232,
      "componentType": 5126,
      "count": 29,
      "max": [
        0.9882630109786987,
        0.17449641227722168
      ],
      "min": [
        0.863539457321167,
        0.09405415505170822
      ],
      "type": "VEC2"
    },
    {
      "bufferView": 0,
      "byteOffset": 47688,
      "componentType": 5125,
      "count": 126,
      "type": "SCALAR"
    },
    {
      "bufferView": 2,
      "byteOffset": 68856,
      "componentType": 5126,
      "count": 29,
      "max": [
        4.1733479499816895,
        69.63748168945313,
        11.737205505371094
      ],
      "min": [
        -4.173348426818848,
        55.97822570800781,
        0.7859926223754883
      ],
      "type": "VEC3"
    },
    {
      "bufferView": 2,
      "byteOffset": 69204,
      "componentType": 5126,
      "count": 29,
      "max": [
        0.996882975101471,
        0.8379919528961182,
        0.8644723296165466
      ],
      "min": [
        -0.9967684149742126,
        -0.37974056601524353,
        -0.7824025750160217
      ],
      "type": "VEC3"
    },
    {
      "bufferView": 1,
      "byteOffset": 28464,
      "componentType": 5126,
      "count": 29,
      "max": [
        0.4339108467102051,
        0.9826372265815735
      ],
      "min": [
        0.2968907058238983,
        0.8942640423774719
      ],
      "type": "VEC2"
    },
    {
      "bufferView": 0,
      "byteOffset": 48192,
      "componentType": 5125,
      "count": 126,
      "type": "SCALAR"
    },
    {
      "bufferView": 2,
      "byteOffset": 69552,
      "componentType": 5126,
      "count": 29,
      "max": [
        3.8976221084594727,
        70.49386596679688,
        -3.069636344909668
      ],
      "min": [
        -3.89762282371521,
        54.04610061645508,
        -11.432947158813477
      ],
      "type": "VEC3"
    },
    {
      "bufferView": 2,
      "byteOffset": 69900,
      "componentType": 5126,
      "count": 29,
      "max": [
        0.9980546236038208,
        0.9458686113357544,
        0.9175466299057007
      ],
      "min": [
        -0.9979172945022583,
        -0.13991591334342957,
        -0.8638344407081604
      ],
      "type": "VEC3"
    },
    {
      "bufferView": 1,
      "byteOffset": 28696,
      "componentType": 5126,
      "count": 29,
      "max": [
        0.4339108467102051,
        0.9826372265815735
      ],
      "min": [
        0.2968907058238983,
        0.8942640423774719
      ],
      "type": "VEC2"
    },
    {
      "bufferView": 0,
      "byteOffset": 48696,
      "componentType": 5125,
      "count": 126,
      "type": "SCALAR"
    },
    {
      "bufferView": 2,
      "byteOffset": 70248,
      "componentType": 5126,
      "count": 29,
      "max": [
        3.578568935394287,
        64.50543975830078,
        -17.966306686401367
      ],
      "min": [
        -3.5785698890686035,
        48.780364990234375,
        -24.148229598999023
      ],
      "type": "VEC3"
    },
    {
      "bufferView": 2,
      "byteOffset": 70596,
      "componentType": 5126,
      "count": 29,
      "max": [
        0.9982548356056213,
        0.9995012283325195,
        0.8968637585639954
      ],
      "min": [
        -0.9980921745300293,
        -0.1135500967502594,
        -0.8916875123977661
      ],
      "type": "VEC3"
    },
    {
      "bufferView": 1,
      "byteOffset": 28928,
      "componentType": 5126,
      "count": 29,
      "max": [
        0.4339108467102051,
        0.9826372265815735
      ],
      "min": [
        0.2968907058238983,
        0.8942640423774719
      ],
      "type": "VEC2"
    },
    {
      "bufferView": 0,
      "byteOffset": 49200,
      "componentType": 5125,
      "count": 126,
      "type": "SCALAR"
    },
    {
      "bufferView": 2,
      "byteOffset": 70944,
      "componentType": 5126,
      "count": 29,
      "max": [
        3.459059238433838,
        55.1861457824707,
        -30.963964462280273
      ],
      "min": [
        -3.4590601921081543,
        39.376075744628906,
        -37.33690643310547
      ],
      "type": "VEC3"
    },
    {
      "bufferView": 2,
      "byteOffset": 71292,
      "componentType": 5126,
      "count": 29,
      "max": [
        0.998360276222229,
        0.9978222846984863,
        0.8848340511322021
      ],
      "min": [
        -0.9982007145881653,
        -0.14229269325733185,
        -0.8850871324539185
      ],
      "type": "VEC3"
    },
    {
      "bufferView": 1,
      "byteOffset": 29160,
      "componentType": 5126,
      "count": 29,
      "max": [
        0.4339108467102051,
        0.9826372265815735
      ],
      "min": [
        0.2968907058238983,
        0.8942640423774719
      ],
      "type": "VEC2"
    },
    {
      "bufferView": 0,
      "byteOffset": 49704,
      "componentType": 5125,
      "count": 126,
      "type": "SCALAR"
    },
    {
      "bufferView": 2,
      "byteOffset": 71640,
      "componentType": 5126,
      "count": 29,
      "max": [
        2.2528481483459473,
        39.02220153808594,
        -46.40782928466797
      ],
      "min": [
        -2.2528483867645264,
        29.98427391052246,
        -52.975337982177734
      ],
      "type": "VEC3"
    },
    {
      "bufferView": 2,
      "byteOffset": 71988,
      "componentType": 5126,
      "count": 29,
      "max": [
        0.9981011152267456,
        0.8456154465675354,
        0.8648457527160645
      ],
      "min": [
        -0.9979948401451111,
        -0.34911105036735535,
        -0.7965110540390015
      ],
      "type": "VEC3"
    },
    {
      "bufferView": 1,
      "byteOffset": 29392,
      "componentType": 5126,
      "count": 29,
      "max": [
        0.4339108467102051,
        0.9826372265815735
      ],
      "min": [
        0.2968907058238983,
        0.8942640423774719
      ],
      "type": "VEC2"
    },
    {
      "bufferView": 0,
      "byteOffset": 50208,
      "componentType": 5125,
      "count": 126,
      "type": "SCALAR"
    },
    {
      "bufferView": 2,
      "byteOffset": 72336,
      "componentType": 5126,
      "count": 29,
      "max": [
        3.860379219055176,
        62.18807601928711,
        25.880714416503906
      ],
      "min": [
        -3.860379934310913,
        54.63614273071289,
        13.003366470336914
      ],
      "type": "VEC3"
    },
    {
      "bufferView": 2,
      "byteOffset": 72684,
      "componentType": 5126,
      "count": 29,
      "max": [
        0.9969120025634766,
        0.9305025339126587,
        0.9322274327278137
      ],
      "min": [
        -0.9969130754470825,
        -0.7979123592376709,
        -0.4168241620063782
      ],
      "type": "VEC3"
    },
    {
      "bufferView": 1,
      "byteOffset": 29624,
      "componentType": 5126,
      "count": 29,
      "max": [
        0.4339108467102051,
        0.9826372265815735
      ],
      "min": [
        0.2968907058238983,
        0.8942640423774719
      ],
      "type": "VEC2"
    },
    {
      "bufferView": 0,
      "byteOffset": 50712,
      "componentType": 5125,
      "count": 126,
      "type": "SCALAR"
    },
    {
      "bufferView": 2,
      "byteOffset": 73032,
      "componentType": 5126,
      "count": 29,
      "max": [
        8.657390594482422,
        54.936527252197266,
        30.703144073486328
      ],
      "min": [
        -8.657390594482422,
        48.32902908325195,
        25.06949234008789
      ],
      "type": "VEC3"
    },
    {
      "bufferView": 2,
      "byteOffset": 73380,
      "componentType": 5126,
      "count": 29,
      "max": [
        0.590057909488678,
        0.9125950932502747,
        0.9048258662223816
      ],
      "min": [
        -0.5900565385818481,
        0.36628851294517517,
        0.40886449813842773
      ],
      "type": "VEC3"
    },
    {
      "bufferView": 1,
      "byteOffset": 29856,
      "componentType": 5126,
      "count": 29,
      "max": [
        0.7739912867546082,
        0.1362767219543457
      ],
      "min": [
        0.48835083842277527,
        0.017017334699630737
      ],
      "type": "VEC2"
    },
    {
      "bufferView": 0,
      "byteOffset": 51216,
      "componentType": 5125,
      "count": 84,
      "type": "SCALAR"
    },
    {
      "bufferView": 2,
      "byteOffset": 73728,
      "componentType": 5126,
      "count": 29,
      "max": [
        3.217329263687134,
        95.12528228759766,
        -45.23916244506836
      ],
      "min": [
        -3.2173285484313965,
        86.36715698242188,
        -54.33311462402344
      ],
      "type": "VEC3"
    },
    {
      "bufferView": 2,
      "byteOffset": 74076,
      "componentType": 5126,
      "count": 29,
      "max": [
        0.9967772364616394,
        0.9084284901618958,
        0.6871094703674316
      ],
      "min": [
        -0.9970079064369202,
        -0.5766320824623108,
        -0.7767865061759949
      ],
      "type": "VEC3"
    },
    {
      "bufferView": 1,
      "byteOffset": 30088,
      "componentType": 5126,
      "count": 29,
      "max": [
        0.4339108467102051,
        0.9826372265815735
      ],
      "min": [
        0.2968907058238983,
        0.8942640423774719
      ],
      "type": "VEC2"
    },
    {
      "bufferView": 0,
      "byteOffset": 51552,
      "componentType": 5125,
      "count": 126,
      "type": "SCALAR"
    },
    {
      "bufferView": 2,
      "byteOffset": 74424,
      "componentType": 5126,
      "count": 29,
      "max": [
        8.701069831848145,
        89.59363555908203,
        -44.178489685058594
      ],
      "min": [
        -1.0068236589431763,
        83.15897369384766,
        -52.14214324951172
      ],
      "type": "VEC3"
    },
    {
      "bufferView": 2,
      "byteOffset": 74772,
      "componentType": 5126,
      "count": 29,
      "max": [
        0.8461824655532837,
        0.9970081448554993,
        0.7888891100883484
      ],
      "min": [
        -0.4310215711593628,
        -0.9967771172523499,
        -0.8638678193092346
      ],
      "type": "VEC3"
    },
    {
      "bufferView": 1,
      "byteOffset": 30320,
      "componentType": 5126,
      "count": 29,
      "max": [
        0.4339108467102051,
        0.9826372265815735
      ],
      "min": [
        0.2968907058238983,
        0.8942640423774719
      ],
      "type": "VEC2"
    },
    {
      "bufferView": 0,
      "byteOffset": 52056,
      "componentType": 5125,
      "count": 126,
      "type": "SCALAR"
    },
    {
      "bufferView": 2,
      "byteOffset": 75120,
      "componentType": 5126,
      "count": 29,
      "max": [
        1.0068238973617554,
        89.59363555908203,
        -44.178489685058594
      ],
      "min": [
        -8.701069831848145,
        83.15897369384766,
        -52.14214324951172
      ],
      "type": "VEC3"
    },
    {
      "bufferView": 2,
      "byteOffset": 75468,
      "componentType": 5126,
      "count": 29,
      "max": [
        0.4310207664966583,
        0.9967771768569946,
        0.7888883948326111
      ],
      "min": [
        -0.8461834788322449,
        -0.9970076084136963,
        -0.8638668656349182
      ],
      "type": "VEC3"
    },
    {
      "bufferView": 1,
      "byteOffset": 30552,
      "componentType": 5126,
      "count": 29,
      "max": [
        0.4339108467102051,
        0.9826372265815735
      ],
      "min": [
        0.2968907058238983,
        0.8942640423774719
      ],
      "type": "VEC2"
    },
    {
      "bufferView": 0,
      "byteOffset": 52560,
      "componentType": 5125,
      "count": 126,
      "type": "SCALAR"
    },
    {
      "bufferView": 2,
      "byteOffset": 75816,
      "componentType": 5126,
      "count": 29,
      "max": [
        2.6759963035583496,
        85.83489990234375,
        -44.40207290649414
      ],
      "min": [
        -2.6759965419769287,
        77.72432708740234,
        -50.96689224243164
      ],
      "type": "VEC3"
    },
    {
      "bufferView": 2,
      "byteOffset": 76164,
      "componentType": 5126,
      "count": 29,
      "max": [
        0.9970078468322754,
        0.42248332500457764,
        0.7937835454940796
      ],
      "min": [
        -0.9967772364616394,
        -0.8418822288513184,
        -0.8678709268569946
      ],
      "type": "VEC3"
    },
    {
      "bufferView": 1,
      "byteOffset": 30784,
      "componentType": 5126,
      "count": 29,
      "max": [
        0.4339108467102051,
        0.9826372265815735
      ],
      "min": [
        0.2968907058238983,
        0.8942640423774719
      ],
      "type": "VEC2"
    },
    {
      "bufferView": 0,
      "byteOffset": 53064,
      "componentType": 5125,
      "count": 126,
      "type": "SCALAR"
    },
    {
      "bufferView": 2,
      "byteOffset": 76512,
      "componentType": 5126,
      "count": 29,
      "max": [
        3.217329263687134,
        90.41918182373047,
        -53.1304817199707
      ],
      "min": [
        -3.2173285484313965,
        84.67792510986328,
        -63.597843170166016
      ],
      "type": "VEC3"
    },
    {
      "bufferView": 2,
      "byteOffset": 76860,
      "componentType": 5126,
      "count": 29,
      "max": [
        0.9967771768569946,
        0.9373700022697449,
        0.3909255266189575
      ],
      "min": [
        -0.9970077276229858,
        -0.8237382173538208,
        -0.9435973167419434
      ],
      "type": "VEC3"
    },
    {
      "bufferView": 1,
      "byteOffset": 31016,
      "componentType": 5126,
      "count": 29,
      "max": [
        0.4339108467102051,
        0.9826372265815735
      ],
      "min": [
        0.2968907058238983,
        0.8942640423774719
      ],
      "type": "VEC2"
    },
    {
      "bufferView": 0,
      "byteOffset": 53568,
      "componentType": 5125,
      "count": 126,
      "type": "SCALAR"
    },
    {
      "bufferView": 2,
      "byteOffset": 77208,
      "componentType": 5126,
      "count": 29,
      "max": [
        9.849703788757324,
        88.86247253417969,
        -50.45603942871094
      ],
      "min": [
        -1.645391583442688,
        81.42464447021484,
        -58.908145904541016
      ],
      "type": "VEC3"
    },
    {
      "bufferView": 2,
      "byteOffset": 77556,
      "componentType": 5126,
      "count": 29,
      "max": [
        0.8744996786117554,
        0.9855599999427795,
        0.8010106682777405
      ],
      "min": [
        -0.5016295909881592,
        -0.9281885623931885,
        -0.8666980266571045
      ],
      "type": "VEC3"
    },
    {
      "bufferView": 1,
      "byteOffset": 31248,
      "componentType": 5126,
      "count": 29,
      "max": [
        0.4339108467102051,
        0.9826372265815735
      ],
      "min": [
        0.2968907058238983,
        0.8942640423774719
      ],
      "type": "VEC2"
    },
    {
      "bufferView": 0,
      "byteOffset": 54072,
      "componentType": 5125,
      "count": 126,
      "type": "SCALAR"
    },
    {
      "bufferView": 2,
      "byteOffset": 77904,
      "componentType": 5126,
      "count": 29,
      "max": [
        1.641832947731018,
        88.8378677368164,
        -50.45603942871094
      ],
      "min": [
        -9.861424446105957,
        81.42189025878906,
        -58.908145904541016
      ],
      "type": "VEC3"
    },
    {
      "bufferView": 2,
      "byteOffset": 78252,
      "componentType": 5126,
      "count": 29,
      "max": [
        0.5007907152175903,
        0.9858227372169495,
        0.8010108470916748
      ],
      "min": [
        -0.8741922974586487,
        -0.9293548464775085,
        -0.8666982650756836
      ],
      "type": "VEC3"
    },
    {
      "bufferView": 1,
      "byteOffset": 31480,
      "componentType": 5126,
      "count": 29,
      "max": [
        0.4339108467102051,
        0.9826372265815735
      ],
      "min": [
        0.2968907058238983,
        0.8942640423774719
      ],
      "type": "VEC2"
    },
    {
      "bufferView": 0,
      "byteOffset": 54576,
      "componentType": 5125,
      "count": 126,
      "type": "SCALAR"
    },
    {
      "bufferView": 2,
      "byteOffset": 78600,
      "componentType": 5126,
      "count": 29,
      "max": [
        8.206262588500977,
        86.3211898803711,
        -49.108551025390625
      ],
      "min": [
        -2.064970016479492,
        76.79956817626953,
        -57.5606575012207
      ],
      "type": "VEC3"
    },
    {
      "bufferView": 2,
      "byteOffset": 78948,
      "componentType": 5126,
      "count": 29,
      "max": [
        0.838085412979126,
        0.7509586811065674,
        0.8010117411613464
      ],
      "min": [
        -0.6235938668251038,
        -0.8997881412506104,
        -0.8666976094245911
      ],
      "type": "VEC3"
    },
    {
      "bufferView": 1,
      "byteOffset": 31712,
      "componentType": 5126,
      "count": 29,
      "max": [
        0.4339108467102051,
        0.9826372265815735
      ],
      "min": [
        0.2968907058238983,
        0.8942640423774719
      ],
      "type": "VEC2"
    },
    {
      "bufferView": 0,
      "byteOffset": 55080,
      "componentType": 5125,
      "count": 126,
      "type": "SCALAR"
    },
    {
      "bufferView": 2,
      "byteOffset": 79296,
      "componentType": 5126,
      "count": 29,
      "max": [
        2.0711441040039063,
        86.31600189208984,
        -49.108551025390625
      ],
      "min": [
        -8.183133125305176,
        76.77286529541016,
        -57.5606575012207
      ],
      "type": "VEC3"
    },
    {
      "bufferView": 2,
      "byteOffset": 79644,
      "componentType": 5126,
      "count": 29,
      "max": [
        0.625981867313385,
        0.7489200234413147,
        0.801011860370636
      ],
      "min": [
        -0.8377010822296143,
        -0.898831844329834,
        -0.8666977286338806
      ],
      "type": "VEC3"
    },
    {
      "bufferView": 1,
      "byteOffset": 31944,
      "componentType": 5126,
      "count": 29,
      "max": [
        0.4339108467102051,
        0.9826372265815735
      ],
      "min": [
        0.2968907058238983,
        0.8942640423774719
      ],
      "type": "VEC2"
    },
    {
      "bufferView": 0,
      "byteOffset": 55584,
      "componentType": 5125,
      "count": 126,
      "type": "SCALAR"
    },
    {
      "bufferView": 2,
      "byteOffset": 79992,
      "componentType": 5126,
      "count": 29,
      "max": [
        3.2173285484313965,
        81.85591888427734,
        -68.02617645263672
      ],
      "min": [
        -3.2173290252685547,
        71.299560546875,
        -72.66645050048828
      ],
      "type": "VEC3"
    },
    {
      "bufferView": 2,
      "byteOffset": 80340,
      "componentType": 5126,
      "count": 29,
      "max": [
        0.9970076680183411,
        0.985321044921875,
        0.8913875222206116
      ],
      "min": [
        -0.9967771172523499,
        -0.24678975343704224,
        -0.9345512390136719
      ],
      "type": "VEC3"
    },
    {
      "bufferView": 1,
      "byteOffset": 32176,
      "componentType": 5126,
      "count": 29,
      "max": [
        0.4339108467102051,
        0.9826372265815735
      ],
      "min": [
        0.2968907058238983,
        0.8942640423774719
      ],
      "type": "VEC2"
    },
    {
      "bufferView": 0,
      "byteOffset": 56088,
      "componentType": 5125,
      "count": 126,
      "type": "SCALAR"
    },
    {
      "bufferView": 2,
      "byteOffset": 80688,
      "componentType": 5126,
      "count": 29,
      "max": [
        9.849703788757324,
        48.25862121582031,
        -70.94012451171875
      ],
      "min": [
        -1.645391583442688,
        40.82079315185547,
        -79.3922348022461
      ],
      "type": "VEC3"
    },
    {
      "bufferView": 2,
      "byteOffset": 81036,
      "componentType": 5126,
      "count": 29,
      "max": [
        0.8745009899139404,
        0.9855599403381348,
        0.8010115623474121
      ],
      "min": [
        -0.5016301870346069,
        -0.9281887412071228,
        -0.8666977286338806
      ],
      "type": "VEC3"
    },
    {
      "bufferView": 1,
      "byteOffset": 32408,
      "componentType": 5126,
      "count": 29,
      "max": [
        0.4339108467102051,
        0.9826372265815735
      ],
      "min": [
        0.2968907058238983,
        0.8942640423774719
      ],
      "type": "VEC2"
    },
    {
      "bufferView": 0,
      "byteOffset": 56592,
      "componentType": 5125,
      "count": 126,
      "type": "SCALAR"
    },
    {
      "bufferView": 2,
      "byteOffset": 81384,
      "componentType": 5126,
      "count": 29,
      "max": [
        1.641832947731018,
        48.23401641845703,
        -70.94012451171875
      ],
      "min": [
        -9.861424446105957,
        40.81803512573242,
        -79.3922348022461
      ],
      "type": "VEC3"
    },
    {
      "bufferView": 2,
      "byteOffset": 81732,
      "componentType": 5126,
      "count": 29,
      "max": [
        0.5007912516593933,
        0.9858227968215942,
        0.8010113835334778
      ],
      "min": [
        -0.8741931319236755,
        -0.929354727268219,
        -0.8666990995407104
      ],
      "type": "VEC3"
    },
    {
      "bufferView": 1,
      "byteOffset": 32640,
      "componentType": 5126,
      "count": 29,
      "max": [
        0.4339108467102051,
        0.9826372265815735
      ],
      "min": [
        0.2968907058238983,
        0.8942640423774719
      ],
      "type": "VEC2"
    },
    {
      "bufferView": 0,
      "byteOffset": 57096,
      "componentType": 5125,
      "count": 126,
      "type": "SCALAR"
    },
    {
      "bufferView": 2,
      "byteOffset": 82080,
      "componentType": 5126,
      "count": 29,
      "max": [
        8.96236801147461,
        45.10783767700195,
        -61.34001922607422
      ],
      "min": [
        -1.3020457029342651,
        38.02120590209961,
        -67.64998626708984
      ],
      "type": "VEC3"
    },
    {
      "bufferView": 2,
      "byteOffset": 82428,
      "componentType": 5126,
      "count": 29,
      "max": [
        0.8534485697746277,
        0.9868996143341064,
        0.9442275166511536
      ],
      "min": [
        -0.5583763122558594,
        -0.9099165201187134,
        -0.7808815836906433
      ],
      "type": "VEC3"
    },
    {
      "bufferView": 1,
      "byteOffset": 32872,
      "componentType": 5126,
      "count": 29,
      "max": [
        0.4339108467102051,
        0.9826372265815735
      ],
      "min": [
        0.2968907058238983,
        0.8942640423774719
      ],
      "type": "VEC2"
    },
    {
      "bufferView": 0,
      "byteOffset": 57600,
      "componentType": 5125,
      "count": 126,
      "type": "SCALAR"
    },
    {
      "bufferView": 2,
      "byteOffset": 82776,
      "componentType": 5126,
      "count": 29,
      "max": [
        1.298754334449768,
        45.08266067504883,
        -61.34001922607422
      ],
      "min": [
        -8.974007606506348,
        38.019439697265625,
        -67.64998626708984
      ],
      "type": "VEC3"
    },
    {
      "bufferView": 2,
      "byteOffset": 83124,
      "componentType": 5126,
      "count": 29,
      "max": [
        0.5572025179862976,
        0.9863999485969543,
        0.9442278742790222
      ],
      "min": [
        -0.8541631698608398,
        -0.91109699010849,
        -0.7808815240859985
      ],
      "type": "VEC3"
    },
    {
      "bufferView": 1,
      "byteOffset": 33104,
      "componentType": 5126,
      "count": 29,
      "max": [
        0.4339108467102051,
        0.9826372265815735
      ],
      "min": [
        0.2968907058238983,
        0.8942640423774719
      ],
      "type": "VEC2"
    },
    {
      "bufferView": 0,
      "byteOffset": 58104,
      "componentType": 5125,
      "count": 126,
      "type": "SCALAR"
    },
    {
      "bufferView": 2,
      "byteOffset": 83472,
      "componentType": 5126,
      "count": 29,
      "max": [
        10.272564888000488,
        60.338558197021484,
        -69.68601989746094
      ],
      "min": [
        -1.547836422920227,
        52.785400390625,
        -77.45758819580078
      ],
      "type": "VEC3"
    },
    {
      "bufferView": 2,
      "byteOffset": 83820,
      "componentType": 5126,
      "count": 29,
      "max": [
        0.836884081363678,
        0.9883717894554138,
        0.8342751860618591
      ],
      "min": [
        -0.4385012984275818,
        -0.9257532954216003,
        -0.8936188220977783
      ],
      "type": "VEC3"
    },
    {
      "bufferView": 1,
      "byteOffset": 33336,
      "componentType": 5126,
      "count": 29,
      "max": [
        0.4339108467102051,
        0.9826372265815735
      ],
      "min": [
        0.2968907058238983,
        0.8942640423774719
      ],
      "type": "VEC2"
    },
    {
      "bufferView": 0,
      "byteOffset": 58608,
      "componentType": 5125,
      "count": 126,
      "type": "SCALAR"
    },
    {
      "bufferView": 2,
      "byteOffset": 84168,
      "componentType": 5126,
      "count": 29,
      "max": [
        1.5441808700561523,
        60.31399154663086,
        -69.68601989746094
      ],
      "min": [
        -10.284261703491211,
        52.7825813293457,
        -77.45758819580078
      ],
      "type": "VEC3"
    },
    {
      "bufferView": 2,
      "byteOffset": 84516,
      "componentType": 5126,
      "count": 29,
      "max": [
        0.43763840198516846,
        0.9886565208435059,
        0.8342751860618591
      ],
      "min": [
        -0.8365513682365417,
        -0.926942765712738,
        -0.8936188817024231
      ],
      "type": "VEC3"
    },
    {
      "bufferView": 1,
      "byteOffset": 33568,
      "componentType": 5126,
      "count": 29,
      "max": [
        0.4339108467102051,
        0.9826372265815735
      ],
      "min": [
        0.2968907058238983,
        0.8942640423774719
      ],
      "type": "VEC2"
    },
    {
      "bufferView": 0,
      "byteOffset": 59112,
      "componentType": 5125,
      "count": 126,
      "type": "SCALAR"
    }
  ],
  "asset": {
    "extras": {
      "author": "Kuruzeus (https://sketchfab.com/kuruzeus)",
      "license": "CC-BY-4.0 (http://creativecommons.org/licenses/by/4.0/)",
      "source": "https://sketchfab.com/3d-models/ours-enemy-1-d3cbbbc04db440d5907ab9e6f737c729",
      "title": "O.U.R.S: Enemy #1"
    },
    "generator": "Sketchfab-12.97.0",
    "version": "2.0"
  },
  "bufferViews": [
    {
      "buffer": 0,
      "byteLength": 59616,
      "name": "floatBufferViews",
      "target": 34963
    },
    {
      "buffer": 0,
      "byteLength": 33800,
      "byteOffset": 59616,
      "byteStride": 8,
      "name": "floatBufferViews",
      "target": 34962
    },
    {
      "buffer": 0,
      "byteLength": 84864,
      "byteOffset": 93416,
      "byteStride": 12,
      "name": "floatBufferViews",
      "target": 34962
    }
  ],
  "buffers": [
    {
      "byteLength": 178280,
      "uri": "scene.bin"
    }
  ],
  "images": [
    {
      "uri": "textures/No1_Blue_baseColor.png"
    },
    {
      "uri": "textures/No1_Blue_emissive.png"
    },
    {
      "uri": "textures/No1_BlackBlue_baseColor.png"
    }
  ],
  "materials": [
    {
      "doubleSided": true,
      "emissiveFactor": [
        1.0,
        1.0,
        1.0
      ],
      "emissiveTexture": {
        "index": 1
      },
      "name": "No1_Blue",
      "pbrMetallicRoughness": {
        "baseColorTexture": {
          "index": 0
        },
        "metallicFactor": 0.24228645268252244,
        "roughnessFactor": 0.1630481159561629
      }
    },
    {
      "doubleSided": true,
      "name": "No1_BlackBlue",
      "pbrMetallicRoughness": {
        "baseColorTexture": {
          "index": 2
        },
        "metallicFactor": 0.8640026331508819,
        "roughnessFactor": 0.19352439931245502
      }
    }
  ],
  "meshes": [
    {
      "name": "body_Emissive_No1_Blue_0",
      "primitives": [
        {
          "attributes": {
            "NORMAL": 1,
            "POSITION": 0,
            "TEXCOORD_0": 2,
            "TEXCOORD_1": 3
          },
          "indices": 4,
          "material": 0,
          "mode": 4
        }
      ]
    },
    {
      "name": "frontleg_No1_Blue_0",
      "primitives": [
        {
          "attributes": {
            "NORMAL": 6,
            "POSITION": 5,
            "TEXCOORD_0": 7,
            "TEXCOORD_1": 8
          },
          "indices": 9,
          "material": 0,
          "mode": 4
        }
      ]
    },
    {
      "name": "midleg_No1_Blue_0",
      "primitives": [
        {
          "attributes": {
            "NORMAL": 11,
            "POSITION": 10,
            "TEXCOORD_0": 12,
            "TEXCOORD_1": 13
          },
          "indices": 14,
          "material": 0,
          "mode": 4
        }
      ]
    },
    {
      "name": "backleg_No1_Blue_0",
      "primitives": [
        {
          "attributes": {
            "NORMAL": 16,
            "POSITION": 15,
            "TEXCOORD_0": 17,
            "TEXCOORD_1": 18
          },
          "indices": 19,
          "material": 0,
          "mode": 4
        }
      ]
    },
    {
      "name": "armor_foot_No1_BlackBlue_0",
      "primitives": [
        {
          "attributes": {
            "NORMAL": 21,
            "POSITION": 20,
            "TEXCOORD_0": 22
          },
          "indices": 23,
          "material": 1,
          "mode": 4
        }
      ]
    },
    {
      "name": "armor_shoulder_No1_BlackBlue_0",
      "primitives": [
        {
          "attributes": {
            "NORMAL": 25,
            "POSITION": 24,
            "TEXCOORD_0": 26
          },
          "indices": 27,
          "material": 1,
          "mode": 4
        }
      ]
    },
    {
      "name": "armor_No1_BlackBlue_0",
      "primitives": [
        {
          "attributes": {
            "NORMAL": 29,
            "POSITION": 28,
            "TEXCOORD_0": 30
          },
          "indices": 31,
          "material": 1,
          "mode": 4
        }
      ]
    },
    {
      "name": "spike_foot_R_No1_BlackBlue_0",
      "primitives": [
        {
          "attributes": {
            "NORMAL": 33,
            "POSITION": 32,
            "TEXCOORD_0": 34
          },
          "indices": 35,
          "material": 1,
          "mode": 4
        }
      ]
    },
    {
      "name": "spike_foot_L_No1_BlackBlue_0",
      "primitives": [
        {
          "attributes": {
            "NORMAL": 37,
            "POSITION": 36,
            "TEXCOORD_0": 38
          },
          "indices": 39,
          "material": 1,
          "mode": 4
        }
      ]
    },
    {
      "name": "teeth_R_No1_BlackBlue_0",
      "primitives": [
        {
          "attributes": {
            "NORMAL": 41,
            "POSITION": 40,
            "TEXCOORD_0": 42
          },
          "indices": 43,
          "material": 1,
          "mode": 4
        }
      ]
    },
    {
      "name": "teeth_L_No1_BlackBlue_0",
      "primitives": [
        {
          "attributes": {
            "NORMAL": 45,
            "POSITION": 44,
            "TEXCOORD_0": 46
          },
          "indices": 47,
          "material": 1,
          "mode": 4
        }
      ]
    },
    {
      "name": "acc01_No1_BlackBlue_0",
      "primitives": [
        {
          "attributes": {
            "NORMAL": 49,
            "POSITION": 48,
            "TEXCOORD_0": 50
          },
          "indices": 51,
          "material": 1,
          "mode": 4
        }
      ]
    },
    {
      "name": "acc02_No1_BlackBlue_0",
      "primitives": [
        {
          "attributes": {
            "NORMAL": 53,
            "POSITION": 52,
            "TEXCOORD_0": 54
          },
          "indices": 55,
          "material": 1,
          "mode": 4
        }
      ]
    },
    {
      "name": "acc03_No1_BlackBlue_0",
      "primitives": [
        {
          "attributes": {
            "NORMAL": 57,
            "POSITION": 56,
            "TEXCOORD_0": 58
          },
          "indices": 59,
          "material": 1,
          "mode": 4
        }
      ]
    },
    {
      "name": "acc04_No1_BlackBlue_0",
      "primitives": [
        {
          "attributes": {
            "NORMAL": 61,
            "POSITION": 60,
            "TEXCOORD_0": 62
          },
          "indices": 63,
          "material": 1,
          "mode": 4
        }
      ]
    },
    {
      "name": "acc05_No1_BlackBlue_0",
      "primitives": [
        {
          "attributes": {
            "NORMAL": 65,
            "POSITION": 64,
            "TEXCOORD_0": 66
          },
          "indices": 67,
          "material": 1,
          "mode": 4
        }
      ]
    },
    {
      "name": "acc06_No1_BlackBlue_0",
      "primitives": [
        {
          "attributes": {
            "NORMAL": 69,
            "POSITION": 68,
            "TEXCOORD_0": 70
          },
          "indices": 71,
          "material": 1,
          "mode": 4
        }
      ]
    },
    {
      "name": "acc07_No1_BlackBlue_0",
      "primitives": [
        {
          "attributes": {
            "NORMAL": 73,
            "POSITION": 72,
            "TEXCOORD_0": 74
          },
          "indices": 75,
          "material": 1,
          "mode": 4
        }
      ]
    },
    {
      "name": "armor_eye_No1_BlackBlue_0",
      "primitives": [
        {
          "attributes": {
            "NORMAL": 77,
            "POSITION": 76,
            "TEXCOORD_0": 78
          },
          "indices": 79,
          "material": 1,
          "mode": 4
        }
      ]
    },
    {
      "name": "acc08_No1_BlackBlue_0",
      "primitives": [
        {
          "attributes": {
            "NORMAL": 81,
            "POSITION": 80,
            "TEXCOORD_0": 82
          },
          "indices": 83,
          "material": 1,
          "mode": 4
        }
      ]
    },
    {
      "name": "acc09_No1_BlackBlue_0",
      "primitives": [
        {
          "attributes": {
            "NORMAL": 85,
            "POSITION": 84,
            "TEXCOORD_0": 86
          },
          "indices": 87,
          "material": 1,
          "mode": 4
        }
      ]
    },
    {
      "name": "acc010_No1_BlackBlue_0",
      "primitives": [
        {
          "attributes": {
            "NORMAL": 89,
            "POSITION": 88,
            "TEXCOORD_0": 90
          },
          "indices": 91,
          "material": 1,
          "mode": 4
        }
      ]
    },
    {
      "name": "acc011_No1_BlackBlue_0",
      "primitives": [
        {
          "attributes": {
            "NORMAL": 93,
            "POSITION": 92,
            "TEXCOORD_0": 94
          },
          "indices": 95,
          "material": 1,
          "mode": 4
        }
      ]
    },
    {
      "name": "acc012_No1_BlackBlue_0",
      "primitives": [
        {
          "attributes": {
            "NORMAL": 97,
            "POSITION": 96,
            "TEXCOORD_0": 98
          },
          "indices": 99,
          "material": 1,
          "mode": 4
        }
      ]
    },
    {
      "name": "acc013_No1_BlackBlue_0",
      "primitives": [
        {
          "attributes": {
            "NORMAL": 101,
            "POSITION": 100,
            "TEXCOORD_0": 102
          },
          "indices": 103,
          "material": 1,
          "mode": 4
        }
      ]
    },
    {
      "name": "acc014_No1_BlackBlue_0",
      "primitives": [
        {
          "attributes": {
            "NORMAL": 105,
            "POSITION": 104,
            "TEXCOORD_0": 106
          },
          "indices": 107,
          "material": 1,
          "mode": 4
        }
      ]
    },
    {
      "name": "acc015_No1_BlackBlue_0",
      "primitives": [
        {
          "attributes": {
            "NORMAL": 109,
            "POSITION": 108,
            "TEXCOORD_0": 110
          },
          "indices": 111,
          "material": 1,
          "mode": 4
        }
      ]
    },
    {
      "name": "acc016_No1_BlackBlue_0",
      "primitives": [
        {
          "attributes": {
            "NORMAL": 113,
            "POSITION": 112,
            "TEXCOORD_0": 114
          },
          "indices": 115,
          "material": 1,
          "mode": 4
        }
      ]
    },
    {
      "name": "acc017_No1_BlackBlue_0",
      "primitives": [
        {
          "attributes": {
            "NORMAL": 117,
            "POSITION": 116,
            "TEXCOORD_0": 118
          },
          "indices": 119,
          "material": 1,
          "mode": 4
        }
      ]
    },
    {
      "name": "acc018_No1_BlackBlue_0",
      "primitives": [
        {
          "attributes": {
            "NORMAL": 121,
            "POSITION": 120,
            "TEXCOORD_0": 122
          },
          "indices": 123,
          "material": 1,
          "mode": 4
        }
      ]
    },
    {
      "name": "acc019_No1_BlackBlue_0",
      "primitives": [
        {
          "attributes": {
            "NORMAL": 125,
            "POSITION": 124,
            "TEXCOORD_0": 126
          },
          "indices": 127,
          "material": 1,
          "mode": 4
        }
      ]
    },
    {
      "name": "acc020_No1_BlackBlue_0",
      "primitives": [
        {
          "attributes": {
            "NORMAL": 129,
            "POSITION": 128,
            "TEXCOORD_0": 130
          },
          "indices": 131,
          "material": 1,
          "mode": 4
        }
      ]
    },
    {
      "name": "acc021_No1_BlackBlue_0",
      "primitives": [
        {
          "attributes": {
            "NORMAL": 133,
            "POSITION": 132,
            "TEXCOORD_0": 134
          },
          "indices": 135,
          "material": 1,
          "mode": 4
        }
      ]
    },
    {
      "name": "acc022_No1_BlackBlue_0",
      "primitives": [
        {
          "attributes": {
            "NORMAL": 137,
            "POSITION": 136,
            "TEXCOORD_0": 138
          },
          "indices": 139,
          "material": 1,
          "mode": 4
        }
      ]
    },
    {
      "name": "acc023_No1_BlackBlue_0",
      "primitives": [
        {
          "attributes": {
            "NORMAL": 141,
            "POSITION": 140,
            "TEXCOORD_0": 142
          },
          "indices": 143,
          "material": 1,
          "mode": 4
        }
      ]
    }
  ],
  "nodes": [
    {
      "children": [
        1
      ],
      "matrix": [
        1.0,
        0.0,
        0.0,
        0.0,
        0.0,
        2.220446049250313e-16,
        -1.0,
        0.0,
        0.0,
        1.0,
        2.220446049250313e-16,
        0.0,
        0.0,
        0.0,
        0.0,
        1.0
      ],
      "name": "Sketchfab_model"
    },
    {
      "children": [
        2
      ],
      "matrix": [
        0.009999999776482582,
        0.0,
        0.0,
        0.0,
        0.0,
        0.0,
        0.009999999776482582,
        0.0,
        0.0,
        -0.009999999776482582,
        0.0,
        0.0,
        0.0,
        0.0,
        0.0,
        1.0
      ],
      "name": "4c79d181b97a400da24999d8fd00f055.fbx"
    },
    {
      "children": [
        3
      ],
      "name": "RootNode"
    },
    {
      "children": [
        4,
        6,
        8,
        10,
        12,
        14,
        16,
        18,
        20,
        22,
        24,
        26,
        28,
        30,
        32,
        34,
        36,
        38,
        40,
        42,
        44,
        46,
        48,
        50,
        52,
        54,
        56,
        58,
        60,
        62,
        64,
        66,
        68,
        70,
        72
      ],
      "name": "no1"
    },
    {
      "children": [
        5
      ],
      "name": "body_Emissive"
    },
    {
      "mesh": 0,
      "name": "body_Emissive_No1_Blue_0"
    },
    {
      "children": [
        7
      ],
      "name": "frontleg"
    },
    {
      "mesh": 1,
      "name": "frontleg_No1_Blue_0"
    },
    {
      "children": [
        9
      ],
      "name": "midleg"
    },
    {
      "mesh": 2,
      "name": "midleg_No1_Blue_0"
    },
    {
      "children": [
        11
      ],
      "name": "backleg"
    },
    {
      "mesh": 3,
      "name": "backleg_No1_Blue_0"
    },
    {
      "children": [
        13
      ],
      "name": "armor_foot"
    },
    {
      "mesh": 4,
      "name": "armor_foot_No1_BlackBlue_0"
    },
    {
      "children": [
        15
      ],
      "name": "armor_shoulder"
    },
    {
      "mesh": 5,
      "name": "armor_shoulder_No1_BlackBlue_0"
    },
    {
      "children": [
        17
      ],
      "name": "armor"
    },
    {
      "mesh": 6,
      "name": "armor_No1_BlackBlue_0"
    },
    {
      "children": [
        19
      ],
      "name": "spike_foot_R"
    },
    {
      "mesh": 7,
      "name": "spike_foot_R_No1_BlackBlue_0"
    },
    {
      "children": [
        21
      ],
      "name": "spike_foot_L"
    },
    {
      "mesh": 8,
      "name": "spike_foot_L_No1_BlackBlue_0"
    },
    {
      "children": [
        23
      ],
      "name": "teeth_R"
    },
    {
      "mesh": 9,
      "name": "teeth_R_No1_BlackBlue_0"
    },
    {
      "children": [
        25
      ],
      "name": "teeth_L"
    },
    {
      "mesh": 10,
      "name": "teeth_L_No1_BlackBlue_0"
    },
    {
      "children": [
        27
      ],
      "name": "acc01"
    },
    {
      "mesh": 11,
      "name": "acc01_No1_BlackBlue_0"
    },
    {
      "children": [
        29
      ],
      "name": "acc02"
    },
    {
      "mesh": 12,
      "name": "acc02_No1_BlackBlue_0"
    },
    {
      "children": [
        31
      ],
      "name": "acc03"
    },
    {
      "mesh": 13,
      "name": "acc03_No1_BlackBlue_0"
    },
    {
      "children": [
        33
      ],
      "name": "acc04"
    },
    {
      "mesh": 14,
      "name": "acc04_No1_BlackBlue_0"
    },
    {
      "children": [
        35
      ],
      "name": "acc05"
    },
    {
      "mesh": 15,
      "name": "acc05_No1_BlackBlue_0"
    },
    {
      "children": [
        37
      ],
      "name": "acc06"
    },
    {
      "mesh": 16,
      "name": "acc06_No1_BlackBlue_0"
    },
    {
      "children": [
        39
      ],
      "name": "acc07"
    },
    {
      "mesh": 17,
      "name": "acc07_No1_BlackBlue_0"
    },
    {
      "children": [
        41
      ],
      "name": "armor_eye"
    },
    {
      "mesh": 18,
      "name": "armor_eye_No1_BlackBlue_0"
    },
    {
      "children": [
        43
      ],
      "name": "acc08"
    },
    {
      "mesh": 19,
      "name": "acc08_No1_BlackBlue_0"
    },
    {
      "children": [
        45
      ],
      "name": "acc09"
    },
    {
      "mesh": 20,
      "name": "acc09_No1_BlackBlue_0"
    },
    {
      "children": [
        47
      ],
      "name": "acc010"
    },
    {
      "mesh": 21,
      "name": "acc010_No1_BlackBlue_0"
    },
    {
      "children": [
        49
      ],
      "name": "acc011"
    },
    {
      "mesh": 22,
      "name": "acc011_No1_BlackBlue_0"
    },
    {
      "children": [
        51
      ],
      "name": "acc012"
    },
    {
      "mesh": 23,
      "name": "acc012_No1_BlackBlue_0"
    },
    {
      "children": [
        53
      ],
      "name": "acc013"
    },
    {
      "mesh": 24,
      "name": "acc013_No1_BlackBlue_0"
    },
    {
      "children": [
        55
      ],
      "name": "acc014"
    },
    {
      "mesh": 25,
      "name": "acc014_No1_BlackBlue_0"
    },
    {
      "children": [
        57
      ],
      "name": "acc015"
    },
    {
      "mesh": 26,
      "name": "acc015_No1_BlackBlue_0"
    },
    {
      "children": [
        59
      ],
      "name": "acc016"
    },
    {
      "mesh": 27,
      "name": "acc016_No1_BlackBlue_0"
    },
    {
      "children": [
        61
      ],
      "name": "acc017"
    },
    {
      "mesh": 28,
      "name": "acc017_No1_BlackBlue_0"
    },
    {
      "children": [
        63
      ],
      "name": "acc018"
    },
    {
      "mesh": 29,
      "name": "acc018_No1_BlackBlue_0"
    },
    {
      "children": [
        65
      ],
      "name": "acc019"
    },
    {
      "mesh": 30,
      "name": "acc019_No1_BlackBlue_0"
    },
    {
      "children": [
        67
      ],
      "name": "acc020"
    },
    {
      "mesh": 31,
      "name": "acc020_No1_BlackBlue_0"
    },
    {
      "children": [
        69
      ],
      "name": "acc021"
    },
    {
      "mesh": 32,
      "name": "acc021_No1_BlackBlue_0"
    },
    {
      "children": [
        71
      ],
      "name": "acc022"
    },
    {
      "mesh": 33,
      "name": "acc022_No1_BlackBlue_0"
    },
    {
      "children": [
        73
      ],
      "name": "acc023"
    },
    {
      "mesh": 34,
      "name": "acc023_No1_BlackBlue_0"
    }
  ],
  "samplers": [
    {
      "magFilter": 9729,
      "minFilter": 9987,
      "wrapS": 10497,
      "wrapT": 10497
    }
  ],
  "scene": 0,
  "scenes": [
    {
      "name": "Sketchfab_Scene",
      "nodes": [
        0
      ]
    }
  ],
  "textures": [
    {
      "sampler": 0,
      "source": 0
    },
    {
      "sampler": 0,
      "source": 1
    },
    {
      "sampler": 0,
      "source": 2
    }
  ]
}
